<svg width="199" height="36" viewBox="0 0 199 36" fill="none" xmlns="http://www.w3.org/2000/svg">
<path d="M13.9334 34.65C13.9204 34.3229 13.8783 33.9976 13.8077 33.678C13.5648 32.8297 13.1422 32.0438 12.5688 31.374C11.8705 30.5388 11.0816 29.7841 10.2166 29.124C8.95976 28.116 7.64901 27.144 6.446 26.064C5.34625 25.1328 4.35266 24.0824 3.48335 22.932C2.54946 21.7036 1.93268 20.2629 1.68781 18.738C1.49345 17.6213 1.43317 16.4852 1.50826 15.354C1.71497 11.9286 3.0834 8.67683 5.38663 6.13803C7.43107 3.81184 10.1819 2.22428 13.2152 1.62003C14.7738 1.30052 16.368 1.19155 17.9554 1.29603C20.2105 1.41064 22.412 2.02541 24.4014 3.09603C27.529 4.72309 29.9276 7.4749 31.1168 10.8C31.646 12.2204 31.9548 13.7138 32.0325 15.228C32.0325 15.588 32.0325 15.966 32.0325 16.344C31.5516 15.3821 30.7951 14.586 29.8599 14.058C29.0593 13.593 28.1846 13.2702 27.2743 13.104C26.4483 12.924 25.6403 12.744 24.8144 12.636C24.2195 12.5429 23.6138 12.5429 23.0189 12.636C22.7405 12.6937 22.4798 12.8168 22.2582 12.9951C22.0366 13.1735 21.8603 13.4021 21.744 13.662C21.524 14.1563 21.3671 14.6764 21.2772 15.21C21.0976 16.164 20.9899 17.118 20.8463 18.072C20.6813 19.0274 20.435 19.9668 20.1101 20.88C19.6791 22.14 19.1944 23.382 18.7814 24.66C18.5104 25.4182 18.3179 26.2024 18.2068 27C18.1537 27.492 18.2088 27.9897 18.3684 28.458C18.4868 28.7614 18.6704 29.0348 18.9063 29.2588C19.1422 29.4829 19.4245 29.6519 19.733 29.754C20.0383 29.862 20.3794 29.916 20.6847 30.006H20.8103C19.6446 30.3067 18.4551 30.5055 17.2552 30.6H16.8781C16.857 30.6147 16.832 30.6226 16.8063 30.6226C16.7806 30.6226 16.7555 30.6147 16.7345 30.6C16.5238 30.0193 16.3851 29.4147 16.3215 28.8C16.2011 27.3418 16.2979 25.8737 16.6088 24.444C17.0437 22.4472 17.5892 20.4761 18.2427 18.54C18.6557 17.172 19.1046 15.822 19.4457 14.418C19.7303 13.4115 19.8635 12.368 19.8407 11.322C19.8726 10.9774 19.8421 10.6298 19.751 10.296C19.6443 9.93526 19.4431 9.60975 19.1684 9.35334C18.8936 9.09693 18.5554 8.91899 18.1888 8.83803C17.3899 8.66687 16.5638 8.66687 15.7649 8.83803C15.4025 8.88163 15.0659 9.04828 14.8111 9.31026C14.5563 9.57224 14.3986 9.91376 14.3643 10.278C14.2835 10.9416 14.2835 11.6125 14.3643 12.276C14.5259 13.77 14.7773 15.282 14.9389 16.794C15.2141 19.0932 15.3281 21.4089 15.2801 23.724C15.2801 25.164 15.1723 26.604 15.0287 28.044C14.8072 30.2224 14.4595 32.3861 13.9873 34.524C13.978 34.5692 13.9597 34.6121 13.9334 34.65ZM14.5619 5.23803C14.557 5.52858 14.6103 5.81716 14.7185 6.08677C14.8266 6.35638 14.9875 6.60157 15.1916 6.80788C15.3958 7.0142 15.639 7.17748 15.9071 7.28811C16.1751 7.39874 16.4625 7.45447 16.7524 7.45203C17.19 7.45559 17.6187 7.32878 17.9843 7.08768C18.3498 6.84658 18.6357 6.50206 18.8056 6.09784C18.9755 5.69361 19.0218 5.24789 18.9386 4.81724C18.8554 4.38658 18.6465 3.99041 18.3384 3.67897C18.0302 3.36753 17.6368 3.15488 17.2079 3.06798C16.779 2.98108 16.334 3.02386 15.9294 3.19089C15.5248 3.35792 15.1788 3.64168 14.9353 4.00615C14.6919 4.37062 14.5619 4.79938 14.5619 5.23803Z" fill="white"/>
<path d="M22.4622 22.158H22.0134C21.8697 22.158 21.8697 22.158 21.8877 21.978C22.0134 21.348 22.139 20.718 22.3186 20.178C22.6059 19.098 22.947 18.036 23.1984 16.938C23.2713 16.6243 23.3193 16.3053 23.3421 15.984C23.3421 15.984 23.3421 15.858 23.4318 15.858C24.164 15.8694 24.8903 15.9907 25.5865 16.218C26.0041 16.3556 26.3765 16.6045 26.6638 16.938C26.8672 17.1852 27.0011 17.4824 27.0516 17.7988C27.1021 18.1153 27.0674 18.4395 26.9511 18.738C26.7599 19.3763 26.4145 19.9575 25.9456 20.43C25.2159 21.2439 24.2688 21.8311 23.2164 22.122C22.9677 22.1674 22.7141 22.1795 22.4622 22.158Z" fill="white"/>
<path d="M23.5037 29.088C22.642 29.0601 21.7966 28.8451 21.0258 28.458C21.0258 28.458 20.936 28.368 21.0258 28.296C21.1156 27.63 21.2233 26.964 21.3131 26.298C21.4029 25.632 21.5106 24.984 21.6004 24.318C21.6004 24.318 21.6004 24.174 21.7261 24.192C22.8437 24.3686 23.9353 24.683 24.976 25.128C25.4523 25.3434 25.894 25.6285 26.2867 25.974C26.4729 26.1173 26.6222 26.3032 26.7221 26.5161C26.8221 26.729 26.8698 26.9628 26.8613 27.198C26.8732 27.2265 26.8793 27.2571 26.8793 27.288C26.8793 27.3189 26.8732 27.3495 26.8613 27.378C25.9884 28.0419 25.0426 28.6036 24.0423 29.052C23.8665 29.0972 23.6839 29.1094 23.5037 29.088Z" fill="white"/>
<path d="M31.44 20.448C31.2953 20.9579 31.1153 21.4571 30.9013 21.942C30.4116 23.1143 29.7587 24.2112 28.9621 25.2L28.8364 25.326C28.4289 24.4928 27.7604 23.8164 26.9332 23.4C27.3102 23.274 27.6693 23.166 28.0105 23.022C29.0741 22.6225 30.0455 22.01 30.8654 21.222L31.3861 20.574L31.44 20.448Z" fill="white"/>
<path d="M14.5618 5.23798C14.5618 4.79932 14.6918 4.37056 14.9353 4.00609C15.1788 3.64162 15.5248 3.35787 15.9294 3.19084C16.334 3.02381 16.779 2.98103 17.2078 3.06793C17.6367 3.15482 18.0302 3.36748 18.3384 3.67892C18.6465 3.99035 18.8554 4.38653 18.9386 4.81719C19.0218 5.24784 18.9755 5.69355 18.8055 6.09778C18.6356 6.50201 18.3498 6.84653 17.9842 7.08763C17.6187 7.32873 17.1899 7.45554 16.7524 7.45198C16.4625 7.45442 16.1751 7.39868 15.907 7.28806C15.639 7.17743 15.3957 7.01415 15.1916 6.80783C14.9875 6.60151 14.8266 6.35633 14.7184 6.08672C14.6103 5.81711 14.557 5.52853 14.5618 5.23798Z" fill="#F8A731"/>
<path d="M38.7837 26.352V9.48601C38.7717 9.40284 38.7792 9.318 38.8056 9.23824C38.832 9.15848 38.8766 9.086 38.9359 9.02657C38.9952 8.96714 39.0675 8.92241 39.1471 8.89592C39.2266 8.86944 39.3112 8.86194 39.3942 8.87401H41.7284C42.1593 8.87401 42.3748 9.07201 42.3748 9.48601V26.352C42.3748 26.784 42.1593 26.982 41.7284 26.982H39.3942C38.9812 27 38.7837 26.784 38.7837 26.352Z" fill="white"/>
<path d="M53.5969 27H46.9355C46.8494 27.0161 46.7608 27.011 46.6772 26.985C46.5935 26.9591 46.5175 26.9131 46.4556 26.851C46.3937 26.789 46.3479 26.7127 46.322 26.6289C46.2961 26.5451 46.2909 26.4562 46.307 26.37V9.48599C46.307 9.07199 46.5045 8.87399 46.9355 8.87399H53.4174C55.214 8.74502 57.0097 9.13878 58.5885 10.008C59.1543 10.4114 59.6058 10.9554 59.8985 11.5865C60.1913 12.2177 60.3153 12.9143 60.2584 13.608C60.324 14.5239 60.084 15.4358 59.5761 16.2C59.1401 16.8147 58.5059 17.2597 57.7805 17.46C58.735 17.6798 59.5739 18.2472 60.1346 19.0521C60.6953 19.857 60.9378 20.842 60.815 21.816C60.8803 22.5803 60.7495 23.3486 60.4353 24.0479C60.121 24.7473 59.6337 25.3546 59.0195 25.812C57.3672 26.7323 55.4815 27.1454 53.5969 27ZM49.8442 16.326H53.4353C54.3427 16.4011 55.2525 16.2137 56.0568 15.786C56.3238 15.5732 56.534 15.2975 56.6688 14.9834C56.8035 14.6693 56.8585 14.3266 56.8289 13.986C56.8746 13.644 56.8269 13.296 56.6909 12.9791C56.555 12.6621 56.3358 12.388 56.0568 12.186C55.2268 11.7789 54.3023 11.6048 53.3815 11.682H49.8442V16.326ZM49.8442 24.102H53.4353C54.4725 24.189 55.514 23.9963 56.4518 23.544C56.7435 23.3166 56.9736 23.0195 57.121 22.6798C57.2684 22.3402 57.3285 21.9689 57.2957 21.6C57.3305 21.2335 57.2712 20.8641 57.1235 20.527C56.9758 20.19 56.7446 19.8963 56.4518 19.674C55.5393 19.2225 54.5211 19.0295 53.5071 19.116H49.9161L49.8442 24.102Z" fill="white"/>
<path d="M64.3702 13.428H66.4351C66.5125 13.4179 66.5911 13.4242 66.6659 13.4465C66.7407 13.4689 66.81 13.5067 66.8693 13.5576C66.9286 13.6086 66.9765 13.6714 67.0099 13.7421C67.0434 13.8128 67.0616 13.8898 67.0635 13.968L67.1892 16.002C67.5261 15.28 68.0462 14.6593 68.6974 14.202C69.4348 13.6419 70.3403 13.3499 71.2651 13.374C71.4055 13.3601 71.5461 13.3986 71.6601 13.482C71.7075 13.5391 71.743 13.6052 71.7646 13.6763C71.7862 13.7474 71.7934 13.8221 71.7858 13.896V16.2C71.7858 16.506 71.6242 16.65 71.283 16.65H70.475C70.0245 16.6423 69.5785 16.7409 69.173 16.9379C68.7675 17.1349 68.4139 17.4247 68.1408 17.784C67.5198 18.5444 67.1888 19.5014 67.2072 20.484V26.406C67.2072 26.802 67.0096 26.982 66.6146 26.982H64.3702C63.9572 26.982 63.7597 26.802 63.7597 26.406V14.022C63.7597 13.626 63.9572 13.428 64.3702 13.428Z" fill="white"/>
<path d="M84.588 18V26.406C84.588 26.802 84.3725 26.982 83.9596 26.982H82.0563C81.6972 26.982 81.4997 26.82 81.4817 26.496L81.374 25.2C80.8476 25.9297 80.1394 26.5082 79.3202 26.8778C78.501 27.2473 77.5995 27.395 76.7056 27.306C75.5448 27.3723 74.4004 27.007 73.4915 26.28C73.089 25.9176 72.7734 25.4688 72.5682 24.967C72.363 24.4652 72.2735 23.9233 72.3065 23.382C72.2895 22.7142 72.4375 22.0526 72.7374 21.456C73.0132 20.9385 73.4146 20.499 73.9045 20.178C74.5037 19.8141 75.159 19.5525 75.8437 19.404C76.6453 19.2005 77.4619 19.0621 78.2856 18.99C79.1116 18.9 80.0812 18.864 81.2662 18.846V18.252C81.2964 17.9197 81.2506 17.5849 81.1324 17.273C81.0142 16.9611 80.8266 16.6804 80.5839 16.452C79.9176 16.023 79.1286 15.8268 78.3395 15.894C77.0213 15.9055 75.7173 16.1681 74.497 16.668C74.4244 16.6992 74.346 16.7144 74.267 16.7128C74.188 16.7112 74.1102 16.6928 74.0389 16.6587C73.9675 16.6247 73.9043 16.5758 73.8532 16.5153C73.8022 16.4549 73.7646 16.3842 73.7429 16.308L73.2761 14.886C73.2303 14.7428 73.2422 14.5872 73.3093 14.4527C73.3764 14.3181 73.4934 14.2152 73.6352 14.166C75.2644 13.4993 77.0109 13.1687 78.7704 13.194C82.5949 13.122 84.588 14.742 84.588 18ZM81.2662 21.87V20.754C80.3146 20.754 79.4707 20.844 78.9141 20.898C78.3068 20.9597 77.706 21.0741 77.1185 21.24C76.6512 21.3478 76.2263 21.5921 75.8976 21.942C75.6152 22.2993 75.4785 22.7507 75.5152 23.205C75.5518 23.6594 75.7591 24.0829 76.0951 24.39C76.5784 24.7418 77.1689 24.9136 77.7649 24.876C78.7017 24.9497 79.6299 24.6525 80.3505 24.048C80.65 23.772 80.8868 23.4347 81.0448 23.0589C81.2028 22.6831 81.2783 22.2776 81.2662 21.87Z" fill="white"/>
<path d="M100.173 18.144V26.406C100.173 26.802 99.9758 26.982 99.5808 26.982H97.3723C96.9593 26.982 96.7438 26.802 96.7438 26.406V18.756C96.806 18.0305 96.6016 17.3072 96.1693 16.722C95.9204 16.4776 95.6208 16.2912 95.2918 16.176C94.9628 16.0609 94.6126 16.02 94.266 16.056C93.8576 16.0281 93.4479 16.0875 93.064 16.2302C92.6802 16.373 92.331 16.5958 92.0395 16.884C91.4883 17.5132 91.2047 18.3338 91.2495 19.17V26.37C91.2618 26.4485 91.2554 26.5287 91.2308 26.6042C91.2063 26.6797 91.1643 26.7483 91.1083 26.8045C91.0523 26.8606 90.9838 26.9027 90.9085 26.9273C90.8332 26.9519 90.7532 26.9583 90.6749 26.946H88.4664C88.0714 26.946 87.8739 26.766 87.8739 26.37V14.022C87.8617 13.9412 87.8687 13.8587 87.8941 13.781C87.9196 13.7034 87.9629 13.6329 88.0206 13.5751C88.0782 13.5173 88.1486 13.4739 88.226 13.4483C88.3034 13.4228 88.3858 13.4158 88.4664 13.428H90.4954C90.8545 13.428 91.052 13.59 91.0699 13.932L91.2136 15.282C91.6622 14.5575 92.3025 13.972 93.0633 13.5907C93.8241 13.2093 94.6756 13.0471 95.5229 13.122C96.1615 13.0654 96.8047 13.1506 97.4068 13.3715C98.0088 13.5923 98.5549 13.9435 99.0062 14.4C99.8496 15.4572 100.266 16.7935 100.173 18.144Z" fill="white"/>
<path d="M113.119 26.496V25.092C112.725 25.8237 112.091 26.3961 111.324 26.712C110.496 27.0913 109.594 27.2818 108.684 27.27C107.888 27.3128 107.092 27.173 106.358 26.861C105.624 26.5491 104.97 26.0734 104.447 25.47C103.341 23.9383 102.813 22.0632 102.956 20.178C102.813 18.2928 103.341 16.4178 104.447 14.886C104.97 14.2827 105.624 13.8069 106.358 13.495C107.092 13.1831 107.888 13.0432 108.684 13.086C109.571 13.0758 110.449 13.2666 111.252 13.644C112.01 13.9462 112.644 14.4986 113.047 15.21V9.43202C113.047 9.05402 113.245 8.87402 113.64 8.87402H115.848C116.261 8.87402 116.459 9.05402 116.459 9.43202V26.406C116.459 26.802 116.261 26.982 115.848 26.982H113.73C113.353 27 113.119 26.82 113.119 26.496ZM112.976 20.196C112.976 17.316 111.862 15.876 109.636 15.876C109.182 15.8447 108.726 15.9195 108.306 16.0944C107.885 16.2693 107.511 16.5396 107.212 16.884C106.593 17.8716 106.309 19.0335 106.404 20.196C106.309 21.3585 106.593 22.5205 107.212 23.508C107.511 23.8525 107.885 24.1228 108.306 24.2977C108.726 24.4726 109.182 24.5473 109.636 24.516C111.85 24.516 112.958 23.076 112.958 20.196H112.976Z" fill="white"/>
<path d="M132.744 8.87398H136.012C136.191 8.85523 136.371 8.89399 136.526 8.98462C136.681 9.07525 136.803 9.21304 136.874 9.37798L142.853 26.172C142.894 26.2656 142.916 26.3667 142.916 26.469C142.916 26.5712 142.894 26.6724 142.853 26.766C142.801 26.8394 142.73 26.8979 142.648 26.9358C142.567 26.9736 142.476 26.9896 142.387 26.982H139.711C139.535 26.9964 139.36 26.9485 139.215 26.8465C139.071 26.7445 138.967 26.595 138.921 26.424L137.88 23.058H130.895L129.872 26.424C129.826 26.5918 129.725 26.7389 129.584 26.8405C129.444 26.9421 129.273 26.9921 129.1 26.982H126.424C126.327 26.9923 126.229 26.976 126.14 26.9348C126.052 26.8936 125.976 26.829 125.921 26.748C125.871 26.6604 125.844 26.5611 125.844 26.46C125.844 26.3589 125.871 26.2595 125.921 26.172L131.883 9.35998C131.957 9.19839 132.08 9.06443 132.235 8.97718C132.39 8.88992 132.568 8.85381 132.744 8.87398ZM131.829 20.016H136.928L134.45 12.42L131.829 20.016Z" fill="white"/>
<path d="M148.815 13.68H151.418C151.499 13.6678 151.581 13.6748 151.659 13.7003C151.736 13.7258 151.806 13.7693 151.864 13.827C151.922 13.8848 151.965 13.9554 151.99 14.033C152.016 14.1106 152.023 14.1932 152.011 14.274V15.714C152.023 15.7948 152.016 15.8773 151.99 15.955C151.965 16.0326 151.922 16.1031 151.864 16.1609C151.806 16.2187 151.736 16.2621 151.659 16.2877C151.581 16.3132 151.499 16.3202 151.418 16.308H148.815V26.442C148.815 26.802 148.617 26.982 148.222 26.982H146.067C145.654 26.982 145.457 26.802 145.457 26.442V16.308H144.074C143.995 16.3171 143.915 16.3078 143.84 16.2809C143.765 16.254 143.697 16.2102 143.641 16.1528C143.586 16.0954 143.544 16.026 143.52 15.9499C143.495 15.8738 143.488 15.7931 143.5 15.714V14.274C143.488 14.1949 143.495 14.1142 143.52 14.0381C143.544 13.962 143.586 13.8926 143.641 13.8352C143.697 13.7778 143.765 13.734 143.84 13.707C143.915 13.6801 143.995 13.6709 144.074 13.68H145.439V12.6C145.439 9.95399 146.822 8.63999 149.605 8.63999C150.272 8.62974 150.937 8.71459 151.58 8.89199C151.716 8.92072 151.838 8.9953 151.927 9.10334C152.015 9.21138 152.063 9.3464 152.065 9.48599V10.8C152.081 10.9549 152.036 11.1101 151.939 11.232C151.89 11.286 151.828 11.3261 151.758 11.3483C151.689 11.3704 151.615 11.3738 151.544 11.358L150.341 11.232C150.131 11.2148 149.92 11.2394 149.72 11.3043C149.519 11.3691 149.334 11.473 149.174 11.61C148.893 11.9527 148.757 12.3922 148.797 12.834L148.815 13.68Z" fill="white"/>
<path d="M154.848 13.428H156.877C156.954 13.4179 157.033 13.4242 157.107 13.4465C157.182 13.4689 157.252 13.5067 157.311 13.5576C157.37 13.6086 157.418 13.6714 157.451 13.7421C157.485 13.8128 157.503 13.8898 157.505 13.968L157.631 16.002C157.968 15.28 158.488 14.6593 159.139 14.202C159.876 13.6419 160.782 13.3499 161.707 13.374C161.847 13.3565 161.989 13.3953 162.102 13.482C162.102 13.482 162.227 13.68 162.227 13.896V16.2C162.227 16.506 162.066 16.65 161.742 16.65H160.917C160.466 16.6423 160.02 16.7409 159.614 16.9379C159.209 17.1349 158.855 17.4247 158.582 17.784C157.961 18.5444 157.63 19.5014 157.649 20.484V26.406C157.649 26.802 157.451 26.982 157.056 26.982H154.848C154.453 26.982 154.237 26.802 154.237 26.406V14.022C154.228 13.9402 154.238 13.8574 154.266 13.78C154.293 13.7026 154.338 13.6325 154.397 13.5752C154.456 13.5179 154.527 13.4749 154.605 13.4493C154.683 13.4238 154.766 13.4165 154.848 13.428Z" fill="white"/>
<path d="M168.099 9.52199V11.322C168.099 11.718 167.919 11.916 167.542 11.916H165.19C165.111 11.9251 165.03 11.9158 164.955 11.8889C164.88 11.862 164.812 11.8182 164.757 11.7608C164.701 11.7034 164.66 11.634 164.635 11.5579C164.611 11.4818 164.604 11.4011 164.615 11.322V9.52199C164.615 9.44865 164.63 9.37605 164.659 9.30893C164.689 9.2418 164.732 9.18165 164.786 9.1324C164.841 9.08315 164.905 9.0459 164.974 9.02309C165.044 9.00027 165.117 8.99241 165.19 8.99999H167.47C167.919 8.99999 168.099 9.12599 168.099 9.52199ZM168.099 14.022V26.406C168.099 26.802 167.901 26.982 167.506 26.982H165.28C164.885 26.982 164.687 26.802 164.687 26.406V14.022C164.675 13.9412 164.682 13.8586 164.707 13.781C164.733 13.7034 164.776 13.6328 164.834 13.575C164.892 13.5173 164.962 13.4738 165.039 13.4483C165.117 13.4228 165.199 13.4158 165.28 13.428H167.506C167.587 13.4158 167.669 13.4228 167.747 13.4483C167.824 13.4738 167.894 13.5173 167.952 13.575C168.01 13.6328 168.053 13.7034 168.078 13.781C168.104 13.8586 168.111 13.9412 168.099 14.022Z" fill="white"/>
<path d="M172.839 25.434C172.201 24.7247 171.713 23.8934 171.405 22.9901C171.096 22.0868 170.973 21.1302 171.043 20.178C170.969 19.2282 171.091 18.2734 171.4 17.3724C171.708 16.4715 172.198 15.6436 172.839 14.94C173.498 14.3209 174.275 13.8422 175.124 13.5329C175.973 13.2235 176.875 13.0898 177.777 13.14C179.147 13.0649 180.512 13.3635 181.727 14.004C181.803 14.0337 181.873 14.0784 181.931 14.1355C181.99 14.1926 182.037 14.261 182.069 14.3366C182.1 14.4121 182.117 14.4933 182.117 14.5753C182.117 14.6574 182.1 14.7385 182.068 14.814L181.35 16.2C181.32 16.2803 181.273 16.3529 181.212 16.4126C181.151 16.4723 181.077 16.5176 180.996 16.5452C180.915 16.5728 180.829 16.582 180.745 16.5721C180.66 16.5622 180.578 16.5335 180.506 16.488C179.748 16.1538 178.928 15.9821 178.1 15.984C177.594 15.954 177.088 16.0316 176.615 16.2115C176.141 16.3914 175.711 16.6697 175.353 17.028C174.634 17.9202 174.281 19.0527 174.365 20.196C174.305 21.3594 174.683 22.503 175.424 23.4C175.771 23.7602 176.191 24.0415 176.656 24.2247C177.121 24.4079 177.619 24.4889 178.118 24.462C179.033 24.4684 179.938 24.2588 180.757 23.85C181.152 23.67 181.422 23.76 181.565 24.12L182.176 25.542C182.301 25.83 182.176 26.1 181.817 26.334C180.624 27.0232 179.259 27.3543 177.884 27.288C176.962 27.3343 176.04 27.194 175.174 26.8755C174.307 26.557 173.513 26.0667 172.839 25.434Z" fill="white"/>
<path d="M196.109 18V26.406C196.109 26.802 195.912 26.982 195.499 26.982H193.595C193.524 26.9921 193.452 26.9873 193.382 26.9678C193.313 26.9484 193.249 26.9148 193.193 26.8692C193.137 26.8235 193.092 26.7668 193.059 26.7025C193.026 26.6383 193.007 26.568 193.003 26.496V25.11C192.472 25.8398 191.761 26.4181 190.939 26.7875C190.117 27.1569 189.213 27.3046 188.317 27.216C187.161 27.2813 186.023 26.9158 185.12 26.19C184.718 25.8277 184.402 25.3788 184.197 24.877C183.992 24.3752 183.902 23.8334 183.935 23.292C183.918 22.6242 184.066 21.9626 184.366 21.366C184.637 20.8447 185.039 20.404 185.533 20.088C186.126 19.7238 186.775 19.4621 187.455 19.314C188.257 19.1136 189.073 18.9752 189.897 18.9C190.74 18.81 191.692 18.774 192.895 18.756V18.162C192.926 17.8281 192.879 17.4916 192.757 17.1792C192.635 16.8667 192.443 16.587 192.195 16.362C191.534 15.9369 190.751 15.7409 189.968 15.804C188.644 15.8154 187.335 16.078 186.108 16.578C186.037 16.6091 185.959 16.6243 185.881 16.6226C185.804 16.6209 185.727 16.6023 185.657 16.5681C185.587 16.5339 185.525 16.4849 185.476 16.4244C185.427 16.364 185.391 16.2936 185.372 16.218L184.905 14.796C184.797 14.49 184.905 14.256 185.264 14.076C186.872 13.423 188.593 13.0987 190.328 13.122C194.188 13.122 196.109 14.742 196.109 18ZM192.805 21.87V20.754C191.836 20.754 191.01 20.844 190.435 20.898C189.828 20.9614 189.228 21.0758 188.64 21.24C188.174 21.3518 187.75 21.5954 187.419 21.942C187.157 22.2598 187.022 22.6641 187.042 23.076C187.031 23.3262 187.079 23.5754 187.182 23.8036C187.285 24.0318 187.44 24.2327 187.634 24.39C188.117 24.7418 188.708 24.9136 189.304 24.876C190.241 24.9498 191.169 24.6525 191.89 24.048C192.186 23.7699 192.421 23.4321 192.579 23.0569C192.737 22.6816 192.814 22.2772 192.805 21.87Z" fill="white"/>
</svg>
